G04 #@! TF.GenerationSoftware,KiCad,Pcbnew,10.0.5*
G04 #@! TF.CreationDate,2026-08-23T21:28:43+07:00*
G04 #@! TF.ProjectId,latihan1,6c617469-6861-46e3-912e-6b696361645f,rev?*
G04 #@! TF.SameCoordinates,Original*
G04 #@! TF.FileFunction,Soldermask,Top*
G04 #@! TF.FilePolarity,Negative*
%FSLAX46Y46*%
G04 Gerber Fmt 4.6, Leading zero omitted, Abs format (unit mm)*
G04 Created by KiCad (PCBNEW 10.0.5) date 2026-08-23 21:28:43*
%MOMM*%
%LPD*%
G01*
G04 APERTURE LIST*
G04 Aperture macros list*
%AMRoundRect*
0 Rectangle with rounded corners*
0 $1 Rounding radius*
0 $2 $3 $4 $5 $6 $7 $8 $9 X,Y pos of 4 corners*
0 Add a 4 corners polygon primitive as box body*
4,1,4,$2,$3,$4,$5,$6,$7,$8,$9,$2,$3,0*
0 Add four circle primitives for the rounded corners*
1,1,$1+$1,$2,$3*
1,1,$1+$1,$4,$5*
1,1,$1+$1,$6,$7*
1,1,$1+$1,$8,$9*
0 Add four rect primitives between the rounded corners*
20,1,$1+$1,$2,$3,$4,$5,0*
20,1,$1+$1,$4,$5,$6,$7,0*
20,1,$1+$1,$6,$7,$8,$9,0*
20,1,$1+$1,$8,$9,$2,$3,0*%
G04 Aperture macros list end*
%ADD10C,1.600000*%
%ADD11C,2.000000*%
%ADD12R,1.700000X1.700000*%
%ADD13C,1.700000*%
%ADD14RoundRect,0.250000X0.550000X-0.550000X0.550000X0.550000X-0.550000X0.550000X-0.550000X-0.550000X0*%
%ADD15RoundRect,0.150000X0.150000X-0.825000X0.150000X0.825000X-0.150000X0.825000X-0.150000X-0.825000X0*%
G04 APERTURE END LIST*
D10*
X97675000Y-91875000D03*
X97675000Y-81715000D03*
D11*
X85525000Y-101975000D03*
X85525000Y-95475000D03*
X90025000Y-101975000D03*
X90025000Y-95475000D03*
D10*
X101725000Y-91875000D03*
X101725000Y-81715000D03*
D12*
X114145000Y-91155000D03*
D13*
X116685000Y-91155000D03*
D10*
X109825000Y-91875000D03*
X109825000Y-81715000D03*
D12*
X114145000Y-85000000D03*
D13*
X116685000Y-85000000D03*
D10*
X130000000Y-91875000D03*
X130000000Y-86875000D03*
X93625000Y-91875000D03*
X93625000Y-81715000D03*
D11*
X119725000Y-101975000D03*
X119725000Y-95475000D03*
X124225000Y-101975000D03*
X124225000Y-95475000D03*
D10*
X85525000Y-91875000D03*
X85525000Y-81715000D03*
D11*
X102625000Y-101975000D03*
X102625000Y-95475000D03*
X107125000Y-101975000D03*
X107125000Y-95475000D03*
X111175000Y-101975000D03*
X111175000Y-95475000D03*
X115675000Y-101975000D03*
X115675000Y-95475000D03*
D14*
X129500000Y-82500000D03*
D10*
X129500000Y-80000000D03*
D11*
X94075000Y-101975000D03*
X94075000Y-95475000D03*
X98575000Y-101975000D03*
X98575000Y-95475000D03*
X128275000Y-101975000D03*
X128275000Y-95475000D03*
X132775000Y-101975000D03*
X132775000Y-95475000D03*
D10*
X105775000Y-91875000D03*
X105775000Y-81715000D03*
D15*
X121460000Y-91700000D03*
X122730000Y-91700000D03*
X124000000Y-91700000D03*
X125270000Y-91700000D03*
X125270000Y-86750000D03*
X124000000Y-86750000D03*
X122730000Y-86750000D03*
X121460000Y-86750000D03*
D10*
X89575000Y-91875000D03*
X89575000Y-81715000D03*
M02*
