M48
; DRILL file KiCad 10.0.5 date 2026-08-23T21:30:36
; FORMAT={-:-/ absolute / metric / decimal}
; #@! TF.CreationDate,2026-08-23T21:30:36+07:00
; #@! TF.GenerationSoftware,Kicad,Pcbnew,10.0.5
; #@! TF.FileFunction,Plated,1,2,PTH
FMAT,2
METRIC
; #@! TA.AperFunction,Plated,PTH,ComponentDrill
T1C0.800
; #@! TA.AperFunction,Plated,PTH,ComponentDrill
T2C1.000
; #@! TA.AperFunction,Plated,PTH,ComponentDrill
T3C1.100
%
G90
G05
T1
X85.525Y-81.715
X85.525Y-91.875
X89.575Y-81.715
X89.575Y-91.875
X93.625Y-81.715
X93.625Y-91.875
X97.675Y-81.715
X97.675Y-91.875
X101.725Y-81.715
X101.725Y-91.875
X105.775Y-81.715
X105.775Y-91.875
X109.825Y-81.715
X109.825Y-91.875
X129.5Y-80.0
X129.5Y-82.5
X130.0Y-86.875
X130.0Y-91.875
T2
X114.145Y-85.0
X114.145Y-91.155
X116.685Y-85.0
X116.685Y-91.155
T3
X85.525Y-95.475
X85.525Y-101.975
X90.025Y-95.475
X90.025Y-101.975
X94.075Y-95.475
X94.075Y-101.975
X98.575Y-95.475
X98.575Y-101.975
X102.625Y-95.475
X102.625Y-101.975
X107.125Y-95.475
X107.125Y-101.975
X111.175Y-95.475
X111.175Y-101.975
X115.675Y-95.475
X115.675Y-101.975
X119.725Y-95.475
X119.725Y-101.975
X124.225Y-95.475
X124.225Y-101.975
X128.275Y-95.475
X128.275Y-101.975
X132.775Y-95.475
X132.775Y-101.975
M30
