G04 #@! TF.GenerationSoftware,KiCad,Pcbnew,10.0.5*
G04 #@! TF.CreationDate,2026-08-23T21:28:43+07:00*
G04 #@! TF.ProjectId,latihan1,6c617469-6861-46e3-912e-6b696361645f,rev?*
G04 #@! TF.SameCoordinates,Original*
G04 #@! TF.FileFunction,Legend,Top*
G04 #@! TF.FilePolarity,Positive*
%FSLAX46Y46*%
G04 Gerber Fmt 4.6, Leading zero omitted, Abs format (unit mm)*
G04 Created by KiCad (PCBNEW 10.0.5) date 2026-08-23 21:28:43*
%MOMM*%
%LPD*%
G01*
G04 APERTURE LIST*
%ADD10C,0.150000*%
%ADD11C,0.120000*%
G04 APERTURE END LIST*
D10*
X97333333Y-79454819D02*
X97000000Y-78978628D01*
X96761905Y-79454819D02*
X96761905Y-78454819D01*
X96761905Y-78454819D02*
X97142857Y-78454819D01*
X97142857Y-78454819D02*
X97238095Y-78502438D01*
X97238095Y-78502438D02*
X97285714Y-78550057D01*
X97285714Y-78550057D02*
X97333333Y-78645295D01*
X97333333Y-78645295D02*
X97333333Y-78788152D01*
X97333333Y-78788152D02*
X97285714Y-78883390D01*
X97285714Y-78883390D02*
X97238095Y-78931009D01*
X97238095Y-78931009D02*
X97142857Y-78978628D01*
X97142857Y-78978628D02*
X96761905Y-78978628D01*
X98190476Y-78788152D02*
X98190476Y-79454819D01*
X97952381Y-78407200D02*
X97714286Y-79121485D01*
X97714286Y-79121485D02*
X98333333Y-79121485D01*
X86666667Y-104907200D02*
X86809524Y-104954819D01*
X86809524Y-104954819D02*
X87047619Y-104954819D01*
X87047619Y-104954819D02*
X87142857Y-104907200D01*
X87142857Y-104907200D02*
X87190476Y-104859580D01*
X87190476Y-104859580D02*
X87238095Y-104764342D01*
X87238095Y-104764342D02*
X87238095Y-104669104D01*
X87238095Y-104669104D02*
X87190476Y-104573866D01*
X87190476Y-104573866D02*
X87142857Y-104526247D01*
X87142857Y-104526247D02*
X87047619Y-104478628D01*
X87047619Y-104478628D02*
X86857143Y-104431009D01*
X86857143Y-104431009D02*
X86761905Y-104383390D01*
X86761905Y-104383390D02*
X86714286Y-104335771D01*
X86714286Y-104335771D02*
X86666667Y-104240533D01*
X86666667Y-104240533D02*
X86666667Y-104145295D01*
X86666667Y-104145295D02*
X86714286Y-104050057D01*
X86714286Y-104050057D02*
X86761905Y-104002438D01*
X86761905Y-104002438D02*
X86857143Y-103954819D01*
X86857143Y-103954819D02*
X87095238Y-103954819D01*
X87095238Y-103954819D02*
X87238095Y-104002438D01*
X87571429Y-103954819D02*
X87809524Y-104954819D01*
X87809524Y-104954819D02*
X88000000Y-104240533D01*
X88000000Y-104240533D02*
X88190476Y-104954819D01*
X88190476Y-104954819D02*
X88428572Y-103954819D01*
X89333333Y-104954819D02*
X88761905Y-104954819D01*
X89047619Y-104954819D02*
X89047619Y-103954819D01*
X89047619Y-103954819D02*
X88952381Y-104097676D01*
X88952381Y-104097676D02*
X88857143Y-104192914D01*
X88857143Y-104192914D02*
X88761905Y-104240533D01*
X101333333Y-79454819D02*
X101000000Y-78978628D01*
X100761905Y-79454819D02*
X100761905Y-78454819D01*
X100761905Y-78454819D02*
X101142857Y-78454819D01*
X101142857Y-78454819D02*
X101238095Y-78502438D01*
X101238095Y-78502438D02*
X101285714Y-78550057D01*
X101285714Y-78550057D02*
X101333333Y-78645295D01*
X101333333Y-78645295D02*
X101333333Y-78788152D01*
X101333333Y-78788152D02*
X101285714Y-78883390D01*
X101285714Y-78883390D02*
X101238095Y-78931009D01*
X101238095Y-78931009D02*
X101142857Y-78978628D01*
X101142857Y-78978628D02*
X100761905Y-78978628D01*
X102238095Y-78454819D02*
X101761905Y-78454819D01*
X101761905Y-78454819D02*
X101714286Y-78931009D01*
X101714286Y-78931009D02*
X101761905Y-78883390D01*
X101761905Y-78883390D02*
X101857143Y-78835771D01*
X101857143Y-78835771D02*
X102095238Y-78835771D01*
X102095238Y-78835771D02*
X102190476Y-78883390D01*
X102190476Y-78883390D02*
X102238095Y-78931009D01*
X102238095Y-78931009D02*
X102285714Y-79026247D01*
X102285714Y-79026247D02*
X102285714Y-79264342D01*
X102285714Y-79264342D02*
X102238095Y-79359580D01*
X102238095Y-79359580D02*
X102190476Y-79407200D01*
X102190476Y-79407200D02*
X102095238Y-79454819D01*
X102095238Y-79454819D02*
X101857143Y-79454819D01*
X101857143Y-79454819D02*
X101761905Y-79407200D01*
X101761905Y-79407200D02*
X101714286Y-79359580D01*
X115166666Y-87454819D02*
X115166666Y-88169104D01*
X115166666Y-88169104D02*
X115119047Y-88311961D01*
X115119047Y-88311961D02*
X115023809Y-88407200D01*
X115023809Y-88407200D02*
X114880952Y-88454819D01*
X114880952Y-88454819D02*
X114785714Y-88454819D01*
X116166666Y-88454819D02*
X115595238Y-88454819D01*
X115880952Y-88454819D02*
X115880952Y-87454819D01*
X115880952Y-87454819D02*
X115785714Y-87597676D01*
X115785714Y-87597676D02*
X115690476Y-87692914D01*
X115690476Y-87692914D02*
X115595238Y-87740533D01*
X109333333Y-79454819D02*
X109000000Y-78978628D01*
X108761905Y-79454819D02*
X108761905Y-78454819D01*
X108761905Y-78454819D02*
X109142857Y-78454819D01*
X109142857Y-78454819D02*
X109238095Y-78502438D01*
X109238095Y-78502438D02*
X109285714Y-78550057D01*
X109285714Y-78550057D02*
X109333333Y-78645295D01*
X109333333Y-78645295D02*
X109333333Y-78788152D01*
X109333333Y-78788152D02*
X109285714Y-78883390D01*
X109285714Y-78883390D02*
X109238095Y-78931009D01*
X109238095Y-78931009D02*
X109142857Y-78978628D01*
X109142857Y-78978628D02*
X108761905Y-78978628D01*
X109666667Y-78454819D02*
X110333333Y-78454819D01*
X110333333Y-78454819D02*
X109904762Y-79454819D01*
X114857142Y-82454819D02*
X114380952Y-82454819D01*
X114380952Y-82454819D02*
X114380952Y-81454819D01*
X115142857Y-82407200D02*
X115285714Y-82454819D01*
X115285714Y-82454819D02*
X115523809Y-82454819D01*
X115523809Y-82454819D02*
X115619047Y-82407200D01*
X115619047Y-82407200D02*
X115666666Y-82359580D01*
X115666666Y-82359580D02*
X115714285Y-82264342D01*
X115714285Y-82264342D02*
X115714285Y-82169104D01*
X115714285Y-82169104D02*
X115666666Y-82073866D01*
X115666666Y-82073866D02*
X115619047Y-82026247D01*
X115619047Y-82026247D02*
X115523809Y-81978628D01*
X115523809Y-81978628D02*
X115333333Y-81931009D01*
X115333333Y-81931009D02*
X115238095Y-81883390D01*
X115238095Y-81883390D02*
X115190476Y-81835771D01*
X115190476Y-81835771D02*
X115142857Y-81740533D01*
X115142857Y-81740533D02*
X115142857Y-81645295D01*
X115142857Y-81645295D02*
X115190476Y-81550057D01*
X115190476Y-81550057D02*
X115238095Y-81502438D01*
X115238095Y-81502438D02*
X115333333Y-81454819D01*
X115333333Y-81454819D02*
X115571428Y-81454819D01*
X115571428Y-81454819D02*
X115714285Y-81502438D01*
X116666666Y-82454819D02*
X116095238Y-82454819D01*
X116380952Y-82454819D02*
X116380952Y-81454819D01*
X116380952Y-81454819D02*
X116285714Y-81597676D01*
X116285714Y-81597676D02*
X116190476Y-81692914D01*
X116190476Y-81692914D02*
X116095238Y-81740533D01*
X134359580Y-89666666D02*
X134407200Y-89714285D01*
X134407200Y-89714285D02*
X134454819Y-89857142D01*
X134454819Y-89857142D02*
X134454819Y-89952380D01*
X134454819Y-89952380D02*
X134407200Y-90095237D01*
X134407200Y-90095237D02*
X134311961Y-90190475D01*
X134311961Y-90190475D02*
X134216723Y-90238094D01*
X134216723Y-90238094D02*
X134026247Y-90285713D01*
X134026247Y-90285713D02*
X133883390Y-90285713D01*
X133883390Y-90285713D02*
X133692914Y-90238094D01*
X133692914Y-90238094D02*
X133597676Y-90190475D01*
X133597676Y-90190475D02*
X133502438Y-90095237D01*
X133502438Y-90095237D02*
X133454819Y-89952380D01*
X133454819Y-89952380D02*
X133454819Y-89857142D01*
X133454819Y-89857142D02*
X133502438Y-89714285D01*
X133502438Y-89714285D02*
X133550057Y-89666666D01*
X134454819Y-88714285D02*
X134454819Y-89285713D01*
X134454819Y-88999999D02*
X133454819Y-88999999D01*
X133454819Y-88999999D02*
X133597676Y-89095237D01*
X133597676Y-89095237D02*
X133692914Y-89190475D01*
X133692914Y-89190475D02*
X133740533Y-89285713D01*
X93333333Y-79454819D02*
X93000000Y-78978628D01*
X92761905Y-79454819D02*
X92761905Y-78454819D01*
X92761905Y-78454819D02*
X93142857Y-78454819D01*
X93142857Y-78454819D02*
X93238095Y-78502438D01*
X93238095Y-78502438D02*
X93285714Y-78550057D01*
X93285714Y-78550057D02*
X93333333Y-78645295D01*
X93333333Y-78645295D02*
X93333333Y-78788152D01*
X93333333Y-78788152D02*
X93285714Y-78883390D01*
X93285714Y-78883390D02*
X93238095Y-78931009D01*
X93238095Y-78931009D02*
X93142857Y-78978628D01*
X93142857Y-78978628D02*
X92761905Y-78978628D01*
X93666667Y-78454819D02*
X94285714Y-78454819D01*
X94285714Y-78454819D02*
X93952381Y-78835771D01*
X93952381Y-78835771D02*
X94095238Y-78835771D01*
X94095238Y-78835771D02*
X94190476Y-78883390D01*
X94190476Y-78883390D02*
X94238095Y-78931009D01*
X94238095Y-78931009D02*
X94285714Y-79026247D01*
X94285714Y-79026247D02*
X94285714Y-79264342D01*
X94285714Y-79264342D02*
X94238095Y-79359580D01*
X94238095Y-79359580D02*
X94190476Y-79407200D01*
X94190476Y-79407200D02*
X94095238Y-79454819D01*
X94095238Y-79454819D02*
X93809524Y-79454819D01*
X93809524Y-79454819D02*
X93714286Y-79407200D01*
X93714286Y-79407200D02*
X93666667Y-79359580D01*
X120666667Y-104907200D02*
X120809524Y-104954819D01*
X120809524Y-104954819D02*
X121047619Y-104954819D01*
X121047619Y-104954819D02*
X121142857Y-104907200D01*
X121142857Y-104907200D02*
X121190476Y-104859580D01*
X121190476Y-104859580D02*
X121238095Y-104764342D01*
X121238095Y-104764342D02*
X121238095Y-104669104D01*
X121238095Y-104669104D02*
X121190476Y-104573866D01*
X121190476Y-104573866D02*
X121142857Y-104526247D01*
X121142857Y-104526247D02*
X121047619Y-104478628D01*
X121047619Y-104478628D02*
X120857143Y-104431009D01*
X120857143Y-104431009D02*
X120761905Y-104383390D01*
X120761905Y-104383390D02*
X120714286Y-104335771D01*
X120714286Y-104335771D02*
X120666667Y-104240533D01*
X120666667Y-104240533D02*
X120666667Y-104145295D01*
X120666667Y-104145295D02*
X120714286Y-104050057D01*
X120714286Y-104050057D02*
X120761905Y-104002438D01*
X120761905Y-104002438D02*
X120857143Y-103954819D01*
X120857143Y-103954819D02*
X121095238Y-103954819D01*
X121095238Y-103954819D02*
X121238095Y-104002438D01*
X121571429Y-103954819D02*
X121809524Y-104954819D01*
X121809524Y-104954819D02*
X122000000Y-104240533D01*
X122000000Y-104240533D02*
X122190476Y-104954819D01*
X122190476Y-104954819D02*
X122428572Y-103954819D01*
X123285714Y-103954819D02*
X122809524Y-103954819D01*
X122809524Y-103954819D02*
X122761905Y-104431009D01*
X122761905Y-104431009D02*
X122809524Y-104383390D01*
X122809524Y-104383390D02*
X122904762Y-104335771D01*
X122904762Y-104335771D02*
X123142857Y-104335771D01*
X123142857Y-104335771D02*
X123238095Y-104383390D01*
X123238095Y-104383390D02*
X123285714Y-104431009D01*
X123285714Y-104431009D02*
X123333333Y-104526247D01*
X123333333Y-104526247D02*
X123333333Y-104764342D01*
X123333333Y-104764342D02*
X123285714Y-104859580D01*
X123285714Y-104859580D02*
X123238095Y-104907200D01*
X123238095Y-104907200D02*
X123142857Y-104954819D01*
X123142857Y-104954819D02*
X122904762Y-104954819D01*
X122904762Y-104954819D02*
X122809524Y-104907200D01*
X122809524Y-104907200D02*
X122761905Y-104859580D01*
X85333333Y-79454819D02*
X85000000Y-78978628D01*
X84761905Y-79454819D02*
X84761905Y-78454819D01*
X84761905Y-78454819D02*
X85142857Y-78454819D01*
X85142857Y-78454819D02*
X85238095Y-78502438D01*
X85238095Y-78502438D02*
X85285714Y-78550057D01*
X85285714Y-78550057D02*
X85333333Y-78645295D01*
X85333333Y-78645295D02*
X85333333Y-78788152D01*
X85333333Y-78788152D02*
X85285714Y-78883390D01*
X85285714Y-78883390D02*
X85238095Y-78931009D01*
X85238095Y-78931009D02*
X85142857Y-78978628D01*
X85142857Y-78978628D02*
X84761905Y-78978628D01*
X86285714Y-79454819D02*
X85714286Y-79454819D01*
X86000000Y-79454819D02*
X86000000Y-78454819D01*
X86000000Y-78454819D02*
X85904762Y-78597676D01*
X85904762Y-78597676D02*
X85809524Y-78692914D01*
X85809524Y-78692914D02*
X85714286Y-78740533D01*
X103666667Y-104907200D02*
X103809524Y-104954819D01*
X103809524Y-104954819D02*
X104047619Y-104954819D01*
X104047619Y-104954819D02*
X104142857Y-104907200D01*
X104142857Y-104907200D02*
X104190476Y-104859580D01*
X104190476Y-104859580D02*
X104238095Y-104764342D01*
X104238095Y-104764342D02*
X104238095Y-104669104D01*
X104238095Y-104669104D02*
X104190476Y-104573866D01*
X104190476Y-104573866D02*
X104142857Y-104526247D01*
X104142857Y-104526247D02*
X104047619Y-104478628D01*
X104047619Y-104478628D02*
X103857143Y-104431009D01*
X103857143Y-104431009D02*
X103761905Y-104383390D01*
X103761905Y-104383390D02*
X103714286Y-104335771D01*
X103714286Y-104335771D02*
X103666667Y-104240533D01*
X103666667Y-104240533D02*
X103666667Y-104145295D01*
X103666667Y-104145295D02*
X103714286Y-104050057D01*
X103714286Y-104050057D02*
X103761905Y-104002438D01*
X103761905Y-104002438D02*
X103857143Y-103954819D01*
X103857143Y-103954819D02*
X104095238Y-103954819D01*
X104095238Y-103954819D02*
X104238095Y-104002438D01*
X104571429Y-103954819D02*
X104809524Y-104954819D01*
X104809524Y-104954819D02*
X105000000Y-104240533D01*
X105000000Y-104240533D02*
X105190476Y-104954819D01*
X105190476Y-104954819D02*
X105428572Y-103954819D01*
X105714286Y-103954819D02*
X106333333Y-103954819D01*
X106333333Y-103954819D02*
X106000000Y-104335771D01*
X106000000Y-104335771D02*
X106142857Y-104335771D01*
X106142857Y-104335771D02*
X106238095Y-104383390D01*
X106238095Y-104383390D02*
X106285714Y-104431009D01*
X106285714Y-104431009D02*
X106333333Y-104526247D01*
X106333333Y-104526247D02*
X106333333Y-104764342D01*
X106333333Y-104764342D02*
X106285714Y-104859580D01*
X106285714Y-104859580D02*
X106238095Y-104907200D01*
X106238095Y-104907200D02*
X106142857Y-104954819D01*
X106142857Y-104954819D02*
X105857143Y-104954819D01*
X105857143Y-104954819D02*
X105761905Y-104907200D01*
X105761905Y-104907200D02*
X105714286Y-104859580D01*
X111666667Y-104907200D02*
X111809524Y-104954819D01*
X111809524Y-104954819D02*
X112047619Y-104954819D01*
X112047619Y-104954819D02*
X112142857Y-104907200D01*
X112142857Y-104907200D02*
X112190476Y-104859580D01*
X112190476Y-104859580D02*
X112238095Y-104764342D01*
X112238095Y-104764342D02*
X112238095Y-104669104D01*
X112238095Y-104669104D02*
X112190476Y-104573866D01*
X112190476Y-104573866D02*
X112142857Y-104526247D01*
X112142857Y-104526247D02*
X112047619Y-104478628D01*
X112047619Y-104478628D02*
X111857143Y-104431009D01*
X111857143Y-104431009D02*
X111761905Y-104383390D01*
X111761905Y-104383390D02*
X111714286Y-104335771D01*
X111714286Y-104335771D02*
X111666667Y-104240533D01*
X111666667Y-104240533D02*
X111666667Y-104145295D01*
X111666667Y-104145295D02*
X111714286Y-104050057D01*
X111714286Y-104050057D02*
X111761905Y-104002438D01*
X111761905Y-104002438D02*
X111857143Y-103954819D01*
X111857143Y-103954819D02*
X112095238Y-103954819D01*
X112095238Y-103954819D02*
X112238095Y-104002438D01*
X112571429Y-103954819D02*
X112809524Y-104954819D01*
X112809524Y-104954819D02*
X113000000Y-104240533D01*
X113000000Y-104240533D02*
X113190476Y-104954819D01*
X113190476Y-104954819D02*
X113428572Y-103954819D01*
X114238095Y-104288152D02*
X114238095Y-104954819D01*
X114000000Y-103907200D02*
X113761905Y-104621485D01*
X113761905Y-104621485D02*
X114380952Y-104621485D01*
X135359580Y-81416666D02*
X135407200Y-81464285D01*
X135407200Y-81464285D02*
X135454819Y-81607142D01*
X135454819Y-81607142D02*
X135454819Y-81702380D01*
X135454819Y-81702380D02*
X135407200Y-81845237D01*
X135407200Y-81845237D02*
X135311961Y-81940475D01*
X135311961Y-81940475D02*
X135216723Y-81988094D01*
X135216723Y-81988094D02*
X135026247Y-82035713D01*
X135026247Y-82035713D02*
X134883390Y-82035713D01*
X134883390Y-82035713D02*
X134692914Y-81988094D01*
X134692914Y-81988094D02*
X134597676Y-81940475D01*
X134597676Y-81940475D02*
X134502438Y-81845237D01*
X134502438Y-81845237D02*
X134454819Y-81702380D01*
X134454819Y-81702380D02*
X134454819Y-81607142D01*
X134454819Y-81607142D02*
X134502438Y-81464285D01*
X134502438Y-81464285D02*
X134550057Y-81416666D01*
X134550057Y-81035713D02*
X134502438Y-80988094D01*
X134502438Y-80988094D02*
X134454819Y-80892856D01*
X134454819Y-80892856D02*
X134454819Y-80654761D01*
X134454819Y-80654761D02*
X134502438Y-80559523D01*
X134502438Y-80559523D02*
X134550057Y-80511904D01*
X134550057Y-80511904D02*
X134645295Y-80464285D01*
X134645295Y-80464285D02*
X134740533Y-80464285D01*
X134740533Y-80464285D02*
X134883390Y-80511904D01*
X134883390Y-80511904D02*
X135454819Y-81083332D01*
X135454819Y-81083332D02*
X135454819Y-80464285D01*
X95166667Y-104907200D02*
X95309524Y-104954819D01*
X95309524Y-104954819D02*
X95547619Y-104954819D01*
X95547619Y-104954819D02*
X95642857Y-104907200D01*
X95642857Y-104907200D02*
X95690476Y-104859580D01*
X95690476Y-104859580D02*
X95738095Y-104764342D01*
X95738095Y-104764342D02*
X95738095Y-104669104D01*
X95738095Y-104669104D02*
X95690476Y-104573866D01*
X95690476Y-104573866D02*
X95642857Y-104526247D01*
X95642857Y-104526247D02*
X95547619Y-104478628D01*
X95547619Y-104478628D02*
X95357143Y-104431009D01*
X95357143Y-104431009D02*
X95261905Y-104383390D01*
X95261905Y-104383390D02*
X95214286Y-104335771D01*
X95214286Y-104335771D02*
X95166667Y-104240533D01*
X95166667Y-104240533D02*
X95166667Y-104145295D01*
X95166667Y-104145295D02*
X95214286Y-104050057D01*
X95214286Y-104050057D02*
X95261905Y-104002438D01*
X95261905Y-104002438D02*
X95357143Y-103954819D01*
X95357143Y-103954819D02*
X95595238Y-103954819D01*
X95595238Y-103954819D02*
X95738095Y-104002438D01*
X96071429Y-103954819D02*
X96309524Y-104954819D01*
X96309524Y-104954819D02*
X96500000Y-104240533D01*
X96500000Y-104240533D02*
X96690476Y-104954819D01*
X96690476Y-104954819D02*
X96928572Y-103954819D01*
X97261905Y-104050057D02*
X97309524Y-104002438D01*
X97309524Y-104002438D02*
X97404762Y-103954819D01*
X97404762Y-103954819D02*
X97642857Y-103954819D01*
X97642857Y-103954819D02*
X97738095Y-104002438D01*
X97738095Y-104002438D02*
X97785714Y-104050057D01*
X97785714Y-104050057D02*
X97833333Y-104145295D01*
X97833333Y-104145295D02*
X97833333Y-104240533D01*
X97833333Y-104240533D02*
X97785714Y-104383390D01*
X97785714Y-104383390D02*
X97214286Y-104954819D01*
X97214286Y-104954819D02*
X97833333Y-104954819D01*
X129166667Y-104907200D02*
X129309524Y-104954819D01*
X129309524Y-104954819D02*
X129547619Y-104954819D01*
X129547619Y-104954819D02*
X129642857Y-104907200D01*
X129642857Y-104907200D02*
X129690476Y-104859580D01*
X129690476Y-104859580D02*
X129738095Y-104764342D01*
X129738095Y-104764342D02*
X129738095Y-104669104D01*
X129738095Y-104669104D02*
X129690476Y-104573866D01*
X129690476Y-104573866D02*
X129642857Y-104526247D01*
X129642857Y-104526247D02*
X129547619Y-104478628D01*
X129547619Y-104478628D02*
X129357143Y-104431009D01*
X129357143Y-104431009D02*
X129261905Y-104383390D01*
X129261905Y-104383390D02*
X129214286Y-104335771D01*
X129214286Y-104335771D02*
X129166667Y-104240533D01*
X129166667Y-104240533D02*
X129166667Y-104145295D01*
X129166667Y-104145295D02*
X129214286Y-104050057D01*
X129214286Y-104050057D02*
X129261905Y-104002438D01*
X129261905Y-104002438D02*
X129357143Y-103954819D01*
X129357143Y-103954819D02*
X129595238Y-103954819D01*
X129595238Y-103954819D02*
X129738095Y-104002438D01*
X130071429Y-103954819D02*
X130309524Y-104954819D01*
X130309524Y-104954819D02*
X130500000Y-104240533D01*
X130500000Y-104240533D02*
X130690476Y-104954819D01*
X130690476Y-104954819D02*
X130928572Y-103954819D01*
X131738095Y-103954819D02*
X131547619Y-103954819D01*
X131547619Y-103954819D02*
X131452381Y-104002438D01*
X131452381Y-104002438D02*
X131404762Y-104050057D01*
X131404762Y-104050057D02*
X131309524Y-104192914D01*
X131309524Y-104192914D02*
X131261905Y-104383390D01*
X131261905Y-104383390D02*
X131261905Y-104764342D01*
X131261905Y-104764342D02*
X131309524Y-104859580D01*
X131309524Y-104859580D02*
X131357143Y-104907200D01*
X131357143Y-104907200D02*
X131452381Y-104954819D01*
X131452381Y-104954819D02*
X131642857Y-104954819D01*
X131642857Y-104954819D02*
X131738095Y-104907200D01*
X131738095Y-104907200D02*
X131785714Y-104859580D01*
X131785714Y-104859580D02*
X131833333Y-104764342D01*
X131833333Y-104764342D02*
X131833333Y-104526247D01*
X131833333Y-104526247D02*
X131785714Y-104431009D01*
X131785714Y-104431009D02*
X131738095Y-104383390D01*
X131738095Y-104383390D02*
X131642857Y-104335771D01*
X131642857Y-104335771D02*
X131452381Y-104335771D01*
X131452381Y-104335771D02*
X131357143Y-104383390D01*
X131357143Y-104383390D02*
X131309524Y-104431009D01*
X131309524Y-104431009D02*
X131261905Y-104526247D01*
X105333333Y-79454819D02*
X105000000Y-78978628D01*
X104761905Y-79454819D02*
X104761905Y-78454819D01*
X104761905Y-78454819D02*
X105142857Y-78454819D01*
X105142857Y-78454819D02*
X105238095Y-78502438D01*
X105238095Y-78502438D02*
X105285714Y-78550057D01*
X105285714Y-78550057D02*
X105333333Y-78645295D01*
X105333333Y-78645295D02*
X105333333Y-78788152D01*
X105333333Y-78788152D02*
X105285714Y-78883390D01*
X105285714Y-78883390D02*
X105238095Y-78931009D01*
X105238095Y-78931009D02*
X105142857Y-78978628D01*
X105142857Y-78978628D02*
X104761905Y-78978628D01*
X106190476Y-78454819D02*
X106000000Y-78454819D01*
X106000000Y-78454819D02*
X105904762Y-78502438D01*
X105904762Y-78502438D02*
X105857143Y-78550057D01*
X105857143Y-78550057D02*
X105761905Y-78692914D01*
X105761905Y-78692914D02*
X105714286Y-78883390D01*
X105714286Y-78883390D02*
X105714286Y-79264342D01*
X105714286Y-79264342D02*
X105761905Y-79359580D01*
X105761905Y-79359580D02*
X105809524Y-79407200D01*
X105809524Y-79407200D02*
X105904762Y-79454819D01*
X105904762Y-79454819D02*
X106095238Y-79454819D01*
X106095238Y-79454819D02*
X106190476Y-79407200D01*
X106190476Y-79407200D02*
X106238095Y-79359580D01*
X106238095Y-79359580D02*
X106285714Y-79264342D01*
X106285714Y-79264342D02*
X106285714Y-79026247D01*
X106285714Y-79026247D02*
X106238095Y-78931009D01*
X106238095Y-78931009D02*
X106190476Y-78883390D01*
X106190476Y-78883390D02*
X106095238Y-78835771D01*
X106095238Y-78835771D02*
X105904762Y-78835771D01*
X105904762Y-78835771D02*
X105809524Y-78883390D01*
X105809524Y-78883390D02*
X105761905Y-78931009D01*
X105761905Y-78931009D02*
X105714286Y-79026247D01*
X119419819Y-89986904D02*
X120229342Y-89986904D01*
X120229342Y-89986904D02*
X120324580Y-89939285D01*
X120324580Y-89939285D02*
X120372200Y-89891666D01*
X120372200Y-89891666D02*
X120419819Y-89796428D01*
X120419819Y-89796428D02*
X120419819Y-89605952D01*
X120419819Y-89605952D02*
X120372200Y-89510714D01*
X120372200Y-89510714D02*
X120324580Y-89463095D01*
X120324580Y-89463095D02*
X120229342Y-89415476D01*
X120229342Y-89415476D02*
X119419819Y-89415476D01*
X120419819Y-88415476D02*
X120419819Y-88986904D01*
X120419819Y-88701190D02*
X119419819Y-88701190D01*
X119419819Y-88701190D02*
X119562676Y-88796428D01*
X119562676Y-88796428D02*
X119657914Y-88891666D01*
X119657914Y-88891666D02*
X119705533Y-88986904D01*
X89333333Y-79454819D02*
X89000000Y-78978628D01*
X88761905Y-79454819D02*
X88761905Y-78454819D01*
X88761905Y-78454819D02*
X89142857Y-78454819D01*
X89142857Y-78454819D02*
X89238095Y-78502438D01*
X89238095Y-78502438D02*
X89285714Y-78550057D01*
X89285714Y-78550057D02*
X89333333Y-78645295D01*
X89333333Y-78645295D02*
X89333333Y-78788152D01*
X89333333Y-78788152D02*
X89285714Y-78883390D01*
X89285714Y-78883390D02*
X89238095Y-78931009D01*
X89238095Y-78931009D02*
X89142857Y-78978628D01*
X89142857Y-78978628D02*
X88761905Y-78978628D01*
X89714286Y-78550057D02*
X89761905Y-78502438D01*
X89761905Y-78502438D02*
X89857143Y-78454819D01*
X89857143Y-78454819D02*
X90095238Y-78454819D01*
X90095238Y-78454819D02*
X90190476Y-78502438D01*
X90190476Y-78502438D02*
X90238095Y-78550057D01*
X90238095Y-78550057D02*
X90285714Y-78645295D01*
X90285714Y-78645295D02*
X90285714Y-78740533D01*
X90285714Y-78740533D02*
X90238095Y-78883390D01*
X90238095Y-78883390D02*
X89666667Y-79454819D01*
X89666667Y-79454819D02*
X90285714Y-79454819D01*
D11*
X97675000Y-82755000D02*
X97675000Y-83525000D01*
X97675000Y-90835000D02*
X97675000Y-90065000D01*
X96305000Y-83525000D02*
X99045000Y-83525000D01*
X99045000Y-90065000D01*
X96305000Y-90065000D01*
X96305000Y-83525000D01*
X84525000Y-96475000D02*
X84525000Y-100975000D01*
X87025000Y-102225000D02*
X88525000Y-102225000D01*
X88525000Y-95225000D02*
X87025000Y-95225000D01*
X91025000Y-100975000D02*
X91025000Y-96475000D01*
X101725000Y-82755000D02*
X101725000Y-83525000D01*
X101725000Y-90835000D02*
X101725000Y-90065000D01*
X100355000Y-83525000D02*
X103095000Y-83525000D01*
X103095000Y-90065000D01*
X100355000Y-90065000D01*
X100355000Y-83525000D01*
X112765000Y-92535000D02*
X112765000Y-91155000D01*
X114145000Y-92535000D02*
X112765000Y-92535000D01*
X115415000Y-89775000D02*
X118065000Y-89775000D01*
X115415000Y-92535000D02*
X115415000Y-89775000D01*
X115415000Y-92535000D02*
X118065000Y-92535000D01*
X118065000Y-92535000D02*
X118065000Y-89775000D01*
X109825000Y-82755000D02*
X109825000Y-83525000D01*
X109825000Y-90835000D02*
X109825000Y-90065000D01*
X108455000Y-83525000D02*
X111195000Y-83525000D01*
X111195000Y-90065000D01*
X108455000Y-90065000D01*
X108455000Y-83525000D01*
X112765000Y-86380000D02*
X112765000Y-85000000D01*
X114145000Y-86380000D02*
X112765000Y-86380000D01*
X115415000Y-83620000D02*
X118065000Y-83620000D01*
X115415000Y-86380000D02*
X115415000Y-83620000D01*
X115415000Y-86380000D02*
X118065000Y-86380000D01*
X118065000Y-86380000D02*
X118065000Y-83620000D01*
X128630000Y-86755000D02*
X128967000Y-86755000D01*
X128630000Y-91995000D02*
X128630000Y-86755000D01*
X128967000Y-91995000D02*
X128630000Y-91995000D01*
X131033000Y-86755000D02*
X131370000Y-86755000D01*
X131370000Y-86755000D02*
X131370000Y-91995000D01*
X131370000Y-91995000D02*
X131033000Y-91995000D01*
X93625000Y-82755000D02*
X93625000Y-83525000D01*
X93625000Y-90835000D02*
X93625000Y-90065000D01*
X92255000Y-83525000D02*
X94995000Y-83525000D01*
X94995000Y-90065000D01*
X92255000Y-90065000D01*
X92255000Y-83525000D01*
X118725000Y-96475000D02*
X118725000Y-100975000D01*
X121225000Y-102225000D02*
X122725000Y-102225000D01*
X122725000Y-95225000D02*
X121225000Y-95225000D01*
X125225000Y-100975000D02*
X125225000Y-96475000D01*
X85525000Y-82755000D02*
X85525000Y-83525000D01*
X85525000Y-90835000D02*
X85525000Y-90065000D01*
X84155000Y-83525000D02*
X86895000Y-83525000D01*
X86895000Y-90065000D01*
X84155000Y-90065000D01*
X84155000Y-83525000D01*
X101625000Y-96475000D02*
X101625000Y-100975000D01*
X104125000Y-102225000D02*
X105625000Y-102225000D01*
X105625000Y-95225000D02*
X104125000Y-95225000D01*
X108125000Y-100975000D02*
X108125000Y-96475000D01*
X110175000Y-96475000D02*
X110175000Y-100975000D01*
X112675000Y-102225000D02*
X114175000Y-102225000D01*
X114175000Y-95225000D02*
X112675000Y-95225000D01*
X116675000Y-100975000D02*
X116675000Y-96475000D01*
X126920000Y-81210000D02*
X132080000Y-81210000D01*
X126920000Y-81250000D02*
X132080000Y-81250000D01*
X126921000Y-81170000D02*
X132079000Y-81170000D01*
X126923000Y-81130000D02*
X132077000Y-81130000D01*
X126925000Y-81090000D02*
X132075000Y-81090000D01*
X126928000Y-81050000D02*
X132072000Y-81050000D01*
X126931000Y-81010000D02*
X128460000Y-81010000D01*
X126935000Y-80970000D02*
X128460000Y-80970000D01*
X126940000Y-80930000D02*
X128460000Y-80930000D01*
X126945000Y-80890000D02*
X128460000Y-80890000D01*
X126951000Y-80850000D02*
X128460000Y-80850000D01*
X126957000Y-80810000D02*
X128460000Y-80810000D01*
X126964000Y-80770000D02*
X128460000Y-80770000D01*
X126972000Y-80730000D02*
X128460000Y-80730000D01*
X126981000Y-80690000D02*
X128460000Y-80690000D01*
X126990000Y-80650000D02*
X128460000Y-80650000D01*
X126999000Y-80610000D02*
X128460000Y-80610000D01*
X127010000Y-80570000D02*
X128460000Y-80570000D01*
X127021000Y-80530000D02*
X128460000Y-80530000D01*
X127033000Y-80490000D02*
X128460000Y-80490000D01*
X127045000Y-80450000D02*
X128460000Y-80450000D01*
X127058000Y-80410000D02*
X128460000Y-80410000D01*
X127072000Y-80370000D02*
X128460000Y-80370000D01*
X127087000Y-80330000D02*
X128460000Y-80330000D01*
X127102000Y-80290000D02*
X128460000Y-80290000D01*
X127118000Y-80250000D02*
X128460000Y-80250000D01*
X127135000Y-80210000D02*
X128460000Y-80210000D01*
X127153000Y-80170000D02*
X128460000Y-80170000D01*
X127171000Y-80130000D02*
X128460000Y-80130000D01*
X127191000Y-80090000D02*
X128460000Y-80090000D01*
X127211000Y-80050000D02*
X128460000Y-80050000D01*
X127232000Y-80010000D02*
X128460000Y-80010000D01*
X127254000Y-79970000D02*
X128460000Y-79970000D01*
X127277000Y-79930000D02*
X128460000Y-79930000D01*
X127301000Y-79890000D02*
X128460000Y-79890000D01*
X127325000Y-79850000D02*
X128460000Y-79850000D01*
X127351000Y-79810000D02*
X128460000Y-79810000D01*
X127378000Y-79770000D02*
X128460000Y-79770000D01*
X127406000Y-79730000D02*
X128460000Y-79730000D01*
X127435000Y-79690000D02*
X128460000Y-79690000D01*
X127465000Y-79650000D02*
X128460000Y-79650000D01*
X127497000Y-79610000D02*
X128460000Y-79610000D01*
X127530000Y-79570000D02*
X128460000Y-79570000D01*
X127564000Y-79530000D02*
X128460000Y-79530000D01*
X127599000Y-79490000D02*
X128460000Y-79490000D01*
X127636000Y-79450000D02*
X128460000Y-79450000D01*
X127675000Y-79410000D02*
X128460000Y-79410000D01*
X127715000Y-79370000D02*
X128460000Y-79370000D01*
X127757000Y-79330000D02*
X128460000Y-79330000D01*
X127775000Y-83804775D02*
X128275000Y-83804775D01*
X127801000Y-79290000D02*
X128460000Y-79290000D01*
X127848000Y-79250000D02*
X128460000Y-79250000D01*
X127896000Y-79210000D02*
X128460000Y-79210000D01*
X127947000Y-79170000D02*
X128460000Y-79170000D01*
X128001000Y-79130000D02*
X128460000Y-79130000D01*
X128025000Y-84054775D02*
X128025000Y-83554775D01*
X128057000Y-79090000D02*
X128460000Y-79090000D01*
X128117000Y-79050000D02*
X128460000Y-79050000D01*
X128181000Y-79010000D02*
X128460000Y-79010000D01*
X128249000Y-78970000D02*
X128460000Y-78970000D01*
X128323000Y-78930000D02*
X130677000Y-78930000D01*
X128402000Y-78890000D02*
X130598000Y-78890000D01*
X128489000Y-78850000D02*
X130511000Y-78850000D01*
X128586000Y-78810000D02*
X130414000Y-78810000D01*
X128695000Y-78770000D02*
X130305000Y-78770000D01*
X128823000Y-78730000D02*
X130177000Y-78730000D01*
X128983000Y-78690000D02*
X130017000Y-78690000D01*
X129217000Y-78650000D02*
X129783000Y-78650000D01*
X130540000Y-78970000D02*
X130751000Y-78970000D01*
X130540000Y-79010000D02*
X130819000Y-79010000D01*
X130540000Y-79050000D02*
X130883000Y-79050000D01*
X130540000Y-79090000D02*
X130943000Y-79090000D01*
X130540000Y-79130000D02*
X130999000Y-79130000D01*
X130540000Y-79170000D02*
X131053000Y-79170000D01*
X130540000Y-79210000D02*
X131104000Y-79210000D01*
X130540000Y-79250000D02*
X131152000Y-79250000D01*
X130540000Y-79290000D02*
X131199000Y-79290000D01*
X130540000Y-79330000D02*
X131243000Y-79330000D01*
X130540000Y-79370000D02*
X131285000Y-79370000D01*
X130540000Y-79410000D02*
X131325000Y-79410000D01*
X130540000Y-79450000D02*
X131364000Y-79450000D01*
X130540000Y-79490000D02*
X131401000Y-79490000D01*
X130540000Y-79530000D02*
X131436000Y-79530000D01*
X130540000Y-79570000D02*
X131470000Y-79570000D01*
X130540000Y-79610000D02*
X131503000Y-79610000D01*
X130540000Y-79650000D02*
X131535000Y-79650000D01*
X130540000Y-79690000D02*
X131565000Y-79690000D01*
X130540000Y-79730000D02*
X131594000Y-79730000D01*
X130540000Y-79770000D02*
X131622000Y-79770000D01*
X130540000Y-79810000D02*
X131649000Y-79810000D01*
X130540000Y-79850000D02*
X131675000Y-79850000D01*
X130540000Y-79890000D02*
X131699000Y-79890000D01*
X130540000Y-79930000D02*
X131723000Y-79930000D01*
X130540000Y-79970000D02*
X131746000Y-79970000D01*
X130540000Y-80010000D02*
X131768000Y-80010000D01*
X130540000Y-80050000D02*
X131789000Y-80050000D01*
X130540000Y-80090000D02*
X131809000Y-80090000D01*
X130540000Y-80130000D02*
X131829000Y-80130000D01*
X130540000Y-80170000D02*
X131847000Y-80170000D01*
X130540000Y-80210000D02*
X131865000Y-80210000D01*
X130540000Y-80250000D02*
X131882000Y-80250000D01*
X130540000Y-80290000D02*
X131898000Y-80290000D01*
X130540000Y-80330000D02*
X131913000Y-80330000D01*
X130540000Y-80370000D02*
X131928000Y-80370000D01*
X130540000Y-80410000D02*
X131942000Y-80410000D01*
X130540000Y-80450000D02*
X131955000Y-80450000D01*
X130540000Y-80490000D02*
X131967000Y-80490000D01*
X130540000Y-80530000D02*
X131979000Y-80530000D01*
X130540000Y-80570000D02*
X131990000Y-80570000D01*
X130540000Y-80610000D02*
X132001000Y-80610000D01*
X130540000Y-80650000D02*
X132010000Y-80650000D01*
X130540000Y-80690000D02*
X132019000Y-80690000D01*
X130540000Y-80730000D02*
X132028000Y-80730000D01*
X130540000Y-80770000D02*
X132036000Y-80770000D01*
X130540000Y-80810000D02*
X132043000Y-80810000D01*
X130540000Y-80850000D02*
X132049000Y-80850000D01*
X130540000Y-80890000D02*
X132055000Y-80890000D01*
X130540000Y-80930000D02*
X132060000Y-80930000D01*
X130540000Y-80970000D02*
X132065000Y-80970000D01*
X130540000Y-81010000D02*
X132069000Y-81010000D01*
X132120000Y-81250000D02*
G75*
G02*
X126880000Y-81250000I-2620000J0D01*
G01*
X126880000Y-81250000D02*
G75*
G02*
X132120000Y-81250000I2620000J0D01*
G01*
X93075000Y-96475000D02*
X93075000Y-100975000D01*
X95575000Y-102225000D02*
X97075000Y-102225000D01*
X97075000Y-95225000D02*
X95575000Y-95225000D01*
X99575000Y-100975000D02*
X99575000Y-96475000D01*
X127275000Y-96475000D02*
X127275000Y-100975000D01*
X129775000Y-102225000D02*
X131275000Y-102225000D01*
X131275000Y-95225000D02*
X129775000Y-95225000D01*
X133775000Y-100975000D02*
X133775000Y-96475000D01*
X105775000Y-82755000D02*
X105775000Y-83525000D01*
X105775000Y-90835000D02*
X105775000Y-90065000D01*
X104405000Y-83525000D02*
X107145000Y-83525000D01*
X107145000Y-90065000D01*
X104405000Y-90065000D01*
X104405000Y-83525000D01*
X120805000Y-87165000D02*
X120900000Y-87165000D01*
X120805000Y-91285000D02*
X120805000Y-87165000D01*
X120900000Y-91285000D02*
X120805000Y-91285000D01*
X125830000Y-87165000D02*
X125925000Y-87165000D01*
X125925000Y-87165000D02*
X125925000Y-91285000D01*
X125925000Y-91285000D02*
X125830000Y-91285000D01*
X120895000Y-91825000D02*
X120565000Y-92065000D01*
X120565000Y-91585000D01*
X120895000Y-91825000D01*
G36*
X120895000Y-91825000D02*
G01*
X120565000Y-92065000D01*
X120565000Y-91585000D01*
X120895000Y-91825000D01*
G37*
X89575000Y-82755000D02*
X89575000Y-83525000D01*
X89575000Y-90835000D02*
X89575000Y-90065000D01*
X88205000Y-83525000D02*
X90945000Y-83525000D01*
X90945000Y-90065000D01*
X88205000Y-90065000D01*
X88205000Y-83525000D01*
M02*
