G04 #@! TF.GenerationSoftware,KiCad,Pcbnew,10.0.5*
G04 #@! TF.CreationDate,2026-08-23T21:28:42+07:00*
G04 #@! TF.ProjectId,latihan1,6c617469-6861-46e3-912e-6b696361645f,rev?*
G04 #@! TF.SameCoordinates,Original*
G04 #@! TF.FileFunction,Copper,L1,Top*
G04 #@! TF.FilePolarity,Positive*
%FSLAX46Y46*%
G04 Gerber Fmt 4.6, Leading zero omitted, Abs format (unit mm)*
G04 Created by KiCad (PCBNEW 10.0.5) date 2026-08-23 21:28:42*
%MOMM*%
%LPD*%
G01*
G04 APERTURE LIST*
G04 Aperture macros list*
%AMRoundRect*
0 Rectangle with rounded corners*
0 $1 Rounding radius*
0 $2 $3 $4 $5 $6 $7 $8 $9 X,Y pos of 4 corners*
0 Add a 4 corners polygon primitive as box body*
4,1,4,$2,$3,$4,$5,$6,$7,$8,$9,$2,$3,0*
0 Add four circle primitives for the rounded corners*
1,1,$1+$1,$2,$3*
1,1,$1+$1,$4,$5*
1,1,$1+$1,$6,$7*
1,1,$1+$1,$8,$9*
0 Add four rect primitives between the rounded corners*
20,1,$1+$1,$2,$3,$4,$5,0*
20,1,$1+$1,$4,$5,$6,$7,0*
20,1,$1+$1,$6,$7,$8,$9,0*
20,1,$1+$1,$8,$9,$2,$3,0*%
G04 Aperture macros list end*
%ADD10C,0.250000*%
G04 #@! TA.AperFunction,NonConductor*
%ADD11C,0.250000*%
G04 #@! TD*
G04 #@! TA.AperFunction,ComponentPad*
%ADD12C,1.600000*%
G04 #@! TD*
G04 #@! TA.AperFunction,ComponentPad*
%ADD13C,2.000000*%
G04 #@! TD*
G04 #@! TA.AperFunction,ComponentPad*
%ADD14R,1.700000X1.700000*%
G04 #@! TD*
G04 #@! TA.AperFunction,ComponentPad*
%ADD15C,1.700000*%
G04 #@! TD*
G04 #@! TA.AperFunction,ComponentPad*
%ADD16RoundRect,0.250000X0.550000X-0.550000X0.550000X0.550000X-0.550000X0.550000X-0.550000X-0.550000X0*%
G04 #@! TD*
G04 #@! TA.AperFunction,SMDPad,CuDef*
%ADD17RoundRect,0.150000X0.150000X-0.825000X0.150000X0.825000X-0.150000X0.825000X-0.150000X-0.825000X0*%
G04 #@! TD*
G04 #@! TA.AperFunction,Conductor*
%ADD18C,0.200000*%
G04 #@! TD*
G04 APERTURE END LIST*
D10*
D11*
X120402568Y-107364619D02*
X120402568Y-106364619D01*
X120402568Y-106364619D02*
X120640663Y-106364619D01*
X120640663Y-106364619D02*
X120783520Y-106412238D01*
X120783520Y-106412238D02*
X120878758Y-106507476D01*
X120878758Y-106507476D02*
X120926377Y-106602714D01*
X120926377Y-106602714D02*
X120973996Y-106793190D01*
X120973996Y-106793190D02*
X120973996Y-106936047D01*
X120973996Y-106936047D02*
X120926377Y-107126523D01*
X120926377Y-107126523D02*
X120878758Y-107221761D01*
X120878758Y-107221761D02*
X120783520Y-107317000D01*
X120783520Y-107317000D02*
X120640663Y-107364619D01*
X120640663Y-107364619D02*
X120402568Y-107364619D01*
X121402568Y-107364619D02*
X121402568Y-106697952D01*
X121402568Y-106364619D02*
X121354949Y-106412238D01*
X121354949Y-106412238D02*
X121402568Y-106459857D01*
X121402568Y-106459857D02*
X121450187Y-106412238D01*
X121450187Y-106412238D02*
X121402568Y-106364619D01*
X121402568Y-106364619D02*
X121402568Y-106459857D01*
X121878758Y-107364619D02*
X121878758Y-106697952D01*
X121878758Y-106793190D02*
X121926377Y-106745571D01*
X121926377Y-106745571D02*
X122021615Y-106697952D01*
X122021615Y-106697952D02*
X122164472Y-106697952D01*
X122164472Y-106697952D02*
X122259710Y-106745571D01*
X122259710Y-106745571D02*
X122307329Y-106840809D01*
X122307329Y-106840809D02*
X122307329Y-107364619D01*
X122307329Y-106840809D02*
X122354948Y-106745571D01*
X122354948Y-106745571D02*
X122450186Y-106697952D01*
X122450186Y-106697952D02*
X122593043Y-106697952D01*
X122593043Y-106697952D02*
X122688282Y-106745571D01*
X122688282Y-106745571D02*
X122735901Y-106840809D01*
X122735901Y-106840809D02*
X122735901Y-107364619D01*
X123640662Y-107364619D02*
X123640662Y-106840809D01*
X123640662Y-106840809D02*
X123593043Y-106745571D01*
X123593043Y-106745571D02*
X123497805Y-106697952D01*
X123497805Y-106697952D02*
X123307329Y-106697952D01*
X123307329Y-106697952D02*
X123212091Y-106745571D01*
X123640662Y-107317000D02*
X123545424Y-107364619D01*
X123545424Y-107364619D02*
X123307329Y-107364619D01*
X123307329Y-107364619D02*
X123212091Y-107317000D01*
X123212091Y-107317000D02*
X123164472Y-107221761D01*
X123164472Y-107221761D02*
X123164472Y-107126523D01*
X123164472Y-107126523D02*
X123212091Y-107031285D01*
X123212091Y-107031285D02*
X123307329Y-106983666D01*
X123307329Y-106983666D02*
X123545424Y-106983666D01*
X123545424Y-106983666D02*
X123640662Y-106936047D01*
X124069234Y-107317000D02*
X124164472Y-107364619D01*
X124164472Y-107364619D02*
X124354948Y-107364619D01*
X124354948Y-107364619D02*
X124450186Y-107317000D01*
X124450186Y-107317000D02*
X124497805Y-107221761D01*
X124497805Y-107221761D02*
X124497805Y-107174142D01*
X124497805Y-107174142D02*
X124450186Y-107078904D01*
X124450186Y-107078904D02*
X124354948Y-107031285D01*
X124354948Y-107031285D02*
X124212091Y-107031285D01*
X124212091Y-107031285D02*
X124116853Y-106983666D01*
X124116853Y-106983666D02*
X124069234Y-106888428D01*
X124069234Y-106888428D02*
X124069234Y-106840809D01*
X124069234Y-106840809D02*
X124116853Y-106745571D01*
X124116853Y-106745571D02*
X124212091Y-106697952D01*
X124212091Y-106697952D02*
X124354948Y-106697952D01*
X124354948Y-106697952D02*
X124450186Y-106745571D01*
X125688282Y-107364619D02*
X125688282Y-106364619D01*
X125688282Y-106364619D02*
X125926377Y-106364619D01*
X125926377Y-106364619D02*
X126069234Y-106412238D01*
X126069234Y-106412238D02*
X126164472Y-106507476D01*
X126164472Y-106507476D02*
X126212091Y-106602714D01*
X126212091Y-106602714D02*
X126259710Y-106793190D01*
X126259710Y-106793190D02*
X126259710Y-106936047D01*
X126259710Y-106936047D02*
X126212091Y-107126523D01*
X126212091Y-107126523D02*
X126164472Y-107221761D01*
X126164472Y-107221761D02*
X126069234Y-107317000D01*
X126069234Y-107317000D02*
X125926377Y-107364619D01*
X125926377Y-107364619D02*
X125688282Y-107364619D01*
X126593044Y-106697952D02*
X127116853Y-106697952D01*
X127116853Y-106697952D02*
X126593044Y-107364619D01*
X126593044Y-107364619D02*
X127116853Y-107364619D01*
X127497806Y-107364619D02*
X127497806Y-106697952D01*
X127497806Y-106364619D02*
X127450187Y-106412238D01*
X127450187Y-106412238D02*
X127497806Y-106459857D01*
X127497806Y-106459857D02*
X127545425Y-106412238D01*
X127545425Y-106412238D02*
X127497806Y-106364619D01*
X127497806Y-106364619D02*
X127497806Y-106459857D01*
X127973996Y-107364619D02*
X127973996Y-106364619D01*
X128069234Y-106983666D02*
X128354948Y-107364619D01*
X128354948Y-106697952D02*
X127973996Y-107078904D01*
X128783520Y-107364619D02*
X128783520Y-106697952D01*
X128783520Y-106888428D02*
X128831139Y-106793190D01*
X128831139Y-106793190D02*
X128878758Y-106745571D01*
X128878758Y-106745571D02*
X128973996Y-106697952D01*
X128973996Y-106697952D02*
X129069234Y-106697952D01*
X129831139Y-107364619D02*
X129831139Y-106840809D01*
X129831139Y-106840809D02*
X129783520Y-106745571D01*
X129783520Y-106745571D02*
X129688282Y-106697952D01*
X129688282Y-106697952D02*
X129497806Y-106697952D01*
X129497806Y-106697952D02*
X129402568Y-106745571D01*
X129831139Y-107317000D02*
X129735901Y-107364619D01*
X129735901Y-107364619D02*
X129497806Y-107364619D01*
X129497806Y-107364619D02*
X129402568Y-107317000D01*
X129402568Y-107317000D02*
X129354949Y-107221761D01*
X129354949Y-107221761D02*
X129354949Y-107126523D01*
X129354949Y-107126523D02*
X129402568Y-107031285D01*
X129402568Y-107031285D02*
X129497806Y-106983666D01*
X129497806Y-106983666D02*
X129735901Y-106983666D01*
X129735901Y-106983666D02*
X129831139Y-106936047D01*
X131069235Y-107364619D02*
X131069235Y-106364619D01*
X131069235Y-106364619D02*
X131450187Y-106364619D01*
X131450187Y-106364619D02*
X131545425Y-106412238D01*
X131545425Y-106412238D02*
X131593044Y-106459857D01*
X131593044Y-106459857D02*
X131640663Y-106555095D01*
X131640663Y-106555095D02*
X131640663Y-106697952D01*
X131640663Y-106697952D02*
X131593044Y-106793190D01*
X131593044Y-106793190D02*
X131545425Y-106840809D01*
X131545425Y-106840809D02*
X131450187Y-106888428D01*
X131450187Y-106888428D02*
X131069235Y-106888428D01*
X132069235Y-107364619D02*
X132069235Y-106697952D01*
X132069235Y-106888428D02*
X132116854Y-106793190D01*
X132116854Y-106793190D02*
X132164473Y-106745571D01*
X132164473Y-106745571D02*
X132259711Y-106697952D01*
X132259711Y-106697952D02*
X132354949Y-106697952D01*
X133116854Y-107364619D02*
X133116854Y-106840809D01*
X133116854Y-106840809D02*
X133069235Y-106745571D01*
X133069235Y-106745571D02*
X132973997Y-106697952D01*
X132973997Y-106697952D02*
X132783521Y-106697952D01*
X132783521Y-106697952D02*
X132688283Y-106745571D01*
X133116854Y-107317000D02*
X133021616Y-107364619D01*
X133021616Y-107364619D02*
X132783521Y-107364619D01*
X132783521Y-107364619D02*
X132688283Y-107317000D01*
X132688283Y-107317000D02*
X132640664Y-107221761D01*
X132640664Y-107221761D02*
X132640664Y-107126523D01*
X132640664Y-107126523D02*
X132688283Y-107031285D01*
X132688283Y-107031285D02*
X132783521Y-106983666D01*
X132783521Y-106983666D02*
X133021616Y-106983666D01*
X133021616Y-106983666D02*
X133116854Y-106936047D01*
X133450188Y-106697952D02*
X133831140Y-106697952D01*
X133593045Y-106364619D02*
X133593045Y-107221761D01*
X133593045Y-107221761D02*
X133640664Y-107317000D01*
X133640664Y-107317000D02*
X133735902Y-107364619D01*
X133735902Y-107364619D02*
X133831140Y-107364619D01*
X134593045Y-107364619D02*
X134593045Y-106840809D01*
X134593045Y-106840809D02*
X134545426Y-106745571D01*
X134545426Y-106745571D02*
X134450188Y-106697952D01*
X134450188Y-106697952D02*
X134259712Y-106697952D01*
X134259712Y-106697952D02*
X134164474Y-106745571D01*
X134593045Y-107317000D02*
X134497807Y-107364619D01*
X134497807Y-107364619D02*
X134259712Y-107364619D01*
X134259712Y-107364619D02*
X134164474Y-107317000D01*
X134164474Y-107317000D02*
X134116855Y-107221761D01*
X134116855Y-107221761D02*
X134116855Y-107126523D01*
X134116855Y-107126523D02*
X134164474Y-107031285D01*
X134164474Y-107031285D02*
X134259712Y-106983666D01*
X134259712Y-106983666D02*
X134497807Y-106983666D01*
X134497807Y-106983666D02*
X134593045Y-106936047D01*
X135069236Y-107364619D02*
X135069236Y-106697952D01*
X135069236Y-106793190D02*
X135116855Y-106745571D01*
X135116855Y-106745571D02*
X135212093Y-106697952D01*
X135212093Y-106697952D02*
X135354950Y-106697952D01*
X135354950Y-106697952D02*
X135450188Y-106745571D01*
X135450188Y-106745571D02*
X135497807Y-106840809D01*
X135497807Y-106840809D02*
X135497807Y-107364619D01*
X135497807Y-106840809D02*
X135545426Y-106745571D01*
X135545426Y-106745571D02*
X135640664Y-106697952D01*
X135640664Y-106697952D02*
X135783521Y-106697952D01*
X135783521Y-106697952D02*
X135878760Y-106745571D01*
X135878760Y-106745571D02*
X135926379Y-106840809D01*
X135926379Y-106840809D02*
X135926379Y-107364619D01*
X136831140Y-107364619D02*
X136831140Y-106840809D01*
X136831140Y-106840809D02*
X136783521Y-106745571D01*
X136783521Y-106745571D02*
X136688283Y-106697952D01*
X136688283Y-106697952D02*
X136497807Y-106697952D01*
X136497807Y-106697952D02*
X136402569Y-106745571D01*
X136831140Y-107317000D02*
X136735902Y-107364619D01*
X136735902Y-107364619D02*
X136497807Y-107364619D01*
X136497807Y-107364619D02*
X136402569Y-107317000D01*
X136402569Y-107317000D02*
X136354950Y-107221761D01*
X136354950Y-107221761D02*
X136354950Y-107126523D01*
X136354950Y-107126523D02*
X136402569Y-107031285D01*
X136402569Y-107031285D02*
X136497807Y-106983666D01*
X136497807Y-106983666D02*
X136735902Y-106983666D01*
X136735902Y-106983666D02*
X136831140Y-106936047D01*
D12*
X97675000Y-91875000D03*
X97675000Y-81715000D03*
D13*
X85525000Y-101975000D03*
X85525000Y-95475000D03*
X90025000Y-101975000D03*
X90025000Y-95475000D03*
D12*
X101725000Y-91875000D03*
X101725000Y-81715000D03*
D14*
X114145000Y-91155000D03*
D15*
X116685000Y-91155000D03*
D12*
X109825000Y-91875000D03*
X109825000Y-81715000D03*
D14*
X114145000Y-85000000D03*
D15*
X116685000Y-85000000D03*
D12*
X130000000Y-91875000D03*
X130000000Y-86875000D03*
X93625000Y-91875000D03*
X93625000Y-81715000D03*
D13*
X119725000Y-101975000D03*
X119725000Y-95475000D03*
X124225000Y-101975000D03*
X124225000Y-95475000D03*
D12*
X85525000Y-91875000D03*
X85525000Y-81715000D03*
D13*
X102625000Y-101975000D03*
X102625000Y-95475000D03*
X107125000Y-101975000D03*
X107125000Y-95475000D03*
X111175000Y-101975000D03*
X111175000Y-95475000D03*
X115675000Y-101975000D03*
X115675000Y-95475000D03*
D16*
X129500000Y-82500000D03*
D12*
X129500000Y-80000000D03*
D13*
X94075000Y-101975000D03*
X94075000Y-95475000D03*
X98575000Y-101975000D03*
X98575000Y-95475000D03*
X128275000Y-101975000D03*
X128275000Y-95475000D03*
X132775000Y-101975000D03*
X132775000Y-95475000D03*
D12*
X105775000Y-91875000D03*
X105775000Y-81715000D03*
D17*
X121460000Y-91700000D03*
X122730000Y-91700000D03*
X124000000Y-91700000D03*
X125270000Y-91700000D03*
X125270000Y-86750000D03*
X124000000Y-86750000D03*
X122730000Y-86750000D03*
X121460000Y-86750000D03*
D12*
X89575000Y-91875000D03*
X89575000Y-81715000D03*
D18*
X110283000Y-95475000D02*
X108195000Y-93386400D01*
X99186400Y-93386400D02*
X97675000Y-91875000D01*
X111175000Y-95475000D02*
X110283000Y-95475000D01*
X108195000Y-93386400D02*
X99186400Y-93386400D01*
X108358000Y-92982100D02*
X108758000Y-93382300D01*
X108758000Y-93382300D02*
X117632000Y-93382300D01*
X101725000Y-91875000D02*
X102832000Y-92982100D01*
X117632000Y-93382300D02*
X119725000Y-95475000D01*
X102832000Y-92982100D02*
X108358000Y-92982100D01*
X91409100Y-94090900D02*
X90025000Y-95475000D01*
X108450000Y-96800200D02*
X107125000Y-95475000D01*
X122985000Y-90854300D02*
X122985000Y-91700000D01*
X98575000Y-95475000D02*
X98575000Y-94090900D01*
X130000000Y-91875000D02*
X128698200Y-91875000D01*
X115675000Y-95475000D02*
X114350000Y-96800200D01*
X115675000Y-101975000D02*
X116977000Y-100673000D01*
X116977000Y-100673000D02*
X122923000Y-100673000D01*
X114350000Y-96800200D02*
X108450000Y-96800200D01*
X105741000Y-94090900D02*
X98575000Y-94090900D01*
X98575000Y-94090900D02*
X91409100Y-94090900D01*
X122730000Y-93980000D02*
X122730000Y-91700000D01*
X124225000Y-95475000D02*
X122730000Y-93980000D01*
X124000000Y-87176800D02*
X124000000Y-86750000D01*
X122923000Y-100673000D02*
X124225000Y-101975000D01*
X128698200Y-91875000D02*
X124000000Y-87176800D01*
X107125000Y-95475000D02*
X105741000Y-94090900D01*
X124225000Y-95475000D02*
X124100000Y-95475000D01*
X108019000Y-91875000D02*
X105775000Y-91875000D01*
X126916000Y-96833800D02*
X123742000Y-96833800D01*
X109125000Y-92980600D02*
X108019000Y-91875000D01*
X123742000Y-96833800D02*
X119889000Y-92980600D01*
X128275000Y-95475000D02*
X126916000Y-96833800D01*
X119889000Y-92980600D02*
X109125000Y-92980600D01*
X115297000Y-91155000D02*
X115297000Y-90867100D01*
X121715000Y-86750000D02*
X121460000Y-86750000D01*
X115297000Y-90867100D02*
X118501000Y-87662800D01*
X123150000Y-86750000D02*
X123400000Y-87000000D01*
X122985000Y-87265000D02*
X122985000Y-86750000D01*
X118500000Y-87000000D02*
X118750000Y-86750000D01*
X118501000Y-87662800D02*
X118501000Y-87001000D01*
X118750000Y-86750000D02*
X121460000Y-86750000D01*
X121460000Y-86750000D02*
X122730000Y-86750000D01*
X122730000Y-86750000D02*
X123150000Y-86750000D01*
X122730000Y-86750000D02*
X122985000Y-86750000D01*
X125270000Y-89770000D02*
X125270000Y-91700000D01*
X114145000Y-91155000D02*
X115297000Y-91155000D01*
X118501000Y-87001000D02*
X118500000Y-87000000D01*
X123400000Y-87900000D02*
X125270000Y-89770000D01*
X123400000Y-87000000D02*
X123400000Y-87900000D01*
X121715000Y-87662800D02*
X121715000Y-86750000D01*
X119155000Y-91155000D02*
X119700000Y-91700000D01*
X119700000Y-91700000D02*
X121460000Y-91700000D01*
X116685000Y-91155000D02*
X119155000Y-91155000D01*
X130000000Y-86875000D02*
X128125000Y-85000000D01*
X128125000Y-85000000D02*
X116685000Y-85000000D01*
X131000000Y-82500000D02*
X129500000Y-82500000D01*
X131100000Y-82600000D02*
X131000000Y-82500000D01*
X124000000Y-91700000D02*
X124000000Y-92674999D01*
X131100000Y-92330635D02*
X131100000Y-82600000D01*
X124300001Y-92975000D02*
X130455635Y-92975000D01*
X124000000Y-92674999D02*
X124300001Y-92975000D01*
X130455635Y-92975000D02*
X131100000Y-92330635D01*
M02*
